<svg width="520" height="1039" viewBox="0 0 520 1039" fill="none" xmlns="http://www.w3.org/2000/svg">
<path fill-rule="evenodd" clip-rule="evenodd" d="M224.879 419.917C224.879 419.917 208.338 419.188 205.758 436.855C190.536 444.185 196.575 460.987 196.575 460.987C196.575 460.987 189.996 475.322 206.456 480.676C209.109 494.422 224.619 490.318 224.619 490.318C224.619 490.318 229.477 500.656 241.015 495.042C254.95 503.797 279.107 499.336 286.523 486.176C304.958 497.26 333.233 478.637 328.317 467.326C348.225 464.104 355.805 441.885 342.257 425.017C349.841 409.839 338.719 402.444 338.719 402.444C338.719 402.444 338.266 369.373 315.124 367.236C301.689 350.751 277.892 367.47 277.892 367.47C277.892 367.47 260.835 365.678 256.298 380.782C237.915 385.527 239.823 395.703 239.251 404.464C222.635 407.086 224.879 419.917 224.879 419.917Z" fill="#010101"/>
<path fill-rule="evenodd" clip-rule="evenodd" d="M275.081 398.709C288.403 399.693 291.389 389.389 291.389 389.389C291.389 389.389 295.391 374.895 297.633 383.321C298.824 387.799 305.258 381.054 308.978 385.582C311.485 388.628 306.462 393.383 314.411 401.38C319.017 406.013 303.251 411.661 314.16 419.958C314.16 419.958 308.205 432.018 320.76 434.498L323.386 447.676C324.915 455.345 319.493 462.66 311.71 463.429C304.29 464.161 297.73 458.621 297.212 451.182L296.077 434.907C277.16 436.806 273.628 410.9 275.081 398.709Z" fill="#FFC999"/>
<path d="M299.449 410.274C299.729 409.932 300.233 409.882 300.575 410.161C300.917 410.441 300.968 410.945 300.688 411.287C300.248 411.826 299.43 412.6 298.25 413.368C296.299 414.639 294.029 415.407 291.472 415.415C291.03 415.417 290.67 415.06 290.669 414.618C290.667 414.176 291.024 413.817 291.466 413.815C293.694 413.808 295.67 413.14 297.377 412.028C297.978 411.636 298.502 411.216 298.943 410.799L299.143 410.604C299.292 410.455 299.394 410.342 299.449 410.274Z" fill="#F5222D"/>
<path d="M288.971 398.111C289.297 398.054 289.608 398.273 289.664 398.6L289.681 398.725L289.69 398.814C289.851 400.654 289.326 403.314 287.588 406.656L287.482 406.854L287.835 407.026C289.013 407.597 290.047 408.071 290.94 408.456L291.268 408.597C291.514 408.701 291.738 408.793 291.939 408.874L292.552 409.112C292.591 409.126 292.62 409.137 292.64 409.144C292.954 409.252 293.12 409.593 293.012 409.907C292.904 410.22 292.562 410.386 292.249 410.278L291.881 410.141L291.493 409.989C291.354 409.933 291.205 409.872 291.046 409.805L290.8 409.702C289.598 409.193 288.131 408.518 286.391 407.655C286.084 407.503 285.966 407.124 286.133 406.825C287.245 404.833 287.93 403.024 288.271 401.414C288.475 400.447 288.534 399.672 288.506 399.102L288.481 398.804C288.425 398.477 288.644 398.167 288.971 398.111Z" fill="#DD936F"/>
<path d="M306.639 396.179C307.085 396.134 307.482 396.459 307.527 396.905C307.838 400.008 305.755 402.786 302.837 403.079C299.919 403.372 297.327 401.062 297.016 397.958C296.971 397.512 297.296 397.115 297.742 397.07C298.188 397.025 298.586 397.351 298.631 397.796C298.855 400.038 300.681 401.664 302.675 401.464C304.669 401.264 306.137 399.307 305.912 397.067C305.867 396.621 306.193 396.223 306.639 396.179Z" fill="black"/>
<path d="M285.422 398.867C285.845 398.825 286.223 399.134 286.265 399.557C286.57 402.625 284.725 405.373 282.055 405.642C279.386 405.908 277.033 403.58 276.724 400.514C276.681 400.091 276.99 399.713 277.413 399.67C277.836 399.628 278.214 399.936 278.257 400.359C278.486 402.637 280.151 404.283 281.902 404.108C283.654 403.932 284.959 401.989 284.732 399.71C284.689 399.287 284.998 398.909 285.422 398.867Z" fill="black"/>
<path d="M296.951 388.048C300.466 386.628 304.2 386.4 307.738 388.146C308.14 388.345 308.305 388.831 308.106 389.233C307.908 389.635 307.421 389.8 307.019 389.602C303.958 388.09 300.684 388.291 297.559 389.553C297.014 389.773 296.522 390.008 296.093 390.243L295.776 390.422C295.692 390.472 295.628 390.512 295.588 390.539C295.214 390.787 294.711 390.685 294.463 390.311C294.215 389.938 294.317 389.434 294.691 389.186L294.937 389.033C295.007 388.992 295.086 388.946 295.175 388.896L295.315 388.818C295.797 388.555 296.346 388.293 296.951 388.048Z" fill="black"/>
<path d="M307.034 430.314C307.308 430.127 307.681 430.198 307.868 430.472C308.054 430.745 307.984 431.119 307.71 431.305C304.08 433.78 300.191 435.233 296.18 435.692C295.851 435.73 295.553 435.493 295.516 435.164C295.478 434.835 295.714 434.537 296.044 434.5C299.861 434.063 303.564 432.679 307.034 430.314Z" fill="#DD936F"/>
<path fill-rule="evenodd" clip-rule="evenodd" d="M221.369 561.206C213.927 556.573 211.65 546.783 216.284 539.342L261.446 466.821C266.08 459.379 275.868 457.102 283.312 461.736C290.752 466.371 293.028 476.16 288.393 483.602L243.235 556.123C238.6 563.564 228.811 565.841 221.369 561.206Z" fill="#FFC999"/>
<path fill-rule="evenodd" clip-rule="evenodd" d="M269.251 514.345L288.394 483.603C293.009 476.191 290.721 466.351 283.311 461.737C275.899 457.121 266.06 459.41 261.445 466.82L242.483 497.27L269.251 514.345Z" fill="white"/>
<path d="M283.29 461.723C283.431 461.496 283.729 461.427 283.956 461.568C291.495 466.263 293.889 476.203 289.374 483.805L289.194 484.1L270.051 514.843C269.925 515.046 269.672 515.122 269.458 515.035L269.38 514.995L242.612 497.922C242.387 497.778 242.321 497.479 242.465 497.254C242.592 497.053 242.843 496.979 243.055 497.066L243.133 497.106L269.488 513.916L288.373 483.589C292.785 476.502 290.688 467.124 283.737 462.576L283.445 462.389C283.218 462.248 283.149 461.95 283.29 461.723Z" fill="#4E5C93"/>
<path fill-rule="evenodd" clip-rule="evenodd" d="M191.35 452.976C186.726 454.565 184.17 459.513 185.549 464.204L212.165 554.776C214.886 563.018 223.819 567.447 232.025 564.624C240.307 561.776 244.614 552.665 241.558 544.459L202.669 457.878C200.732 453.563 195.822 451.436 191.35 452.976Z" fill="#FFC999"/>
<path fill-rule="evenodd" clip-rule="evenodd" d="M174.599 458.245C174.599 458.245 186.695 470.112 195.794 465.981C204.033 462.239 201.292 453.571 201.292 453.571C201.292 453.571 199.931 444.522 194.681 435.81C191.222 430.07 183.536 419.82 180.274 421.23C176.024 423.069 185.398 434.161 182.853 436.371C180.243 438.641 178.135 436.492 171.738 433.182C167.741 431.115 164.613 427.502 160.889 426.397C153.609 424.232 154.972 441.955 174.599 458.245Z" fill="#FFC999"/>
<path d="M158.989 428.001C159.194 427.74 159.571 427.695 159.832 427.9L161.527 429.224C164.329 431.4 167.015 433.417 169.543 435.259L171.04 436.342C172.095 437.101 173.053 437.778 173.903 438.371L174.927 439.078L175.41 439.407C175.685 439.592 175.758 439.965 175.574 440.24C175.389 440.515 175.016 440.588 174.741 440.403L173.577 439.605L172.06 438.543C171.654 438.257 171.23 437.955 170.788 437.638L170.34 437.317C166.879 434.829 163.089 431.988 159.09 428.843C158.829 428.638 158.784 428.261 158.989 428.001Z" fill="#DD936F"/>
<path d="M159.827 433.343C160.021 433.075 160.396 433.014 160.665 433.208L161.666 433.946L162.488 434.566C163.055 434.996 163.659 435.462 164.293 435.958C167.011 438.086 169.729 440.349 172.267 442.652C172.679 443.026 173.084 443.398 173.48 443.769C173.722 443.996 173.735 444.375 173.509 444.617C173.282 444.859 172.903 444.872 172.661 444.646C172.269 444.279 171.869 443.911 171.461 443.541C168.946 441.26 166.25 439.014 163.554 436.903L162.633 436.188C162.334 435.957 162.044 435.735 161.763 435.522L160.559 434.618L159.963 434.181C159.694 433.987 159.633 433.612 159.827 433.343Z" fill="#DD936F"/>
<path d="M160.575 439.905C160.694 439.596 161.041 439.442 161.351 439.561C162.472 439.992 163.701 440.664 165.023 441.547C166.265 442.376 167.568 443.377 168.911 444.514C170.311 445.699 171.68 446.967 172.962 448.235L173.479 448.752L174.366 449.663L174.427 449.728L174.851 449.717C177.434 449.651 180.357 449.709 183.133 449.986L183.857 450.063C189.314 450.69 192.569 452.064 192.569 454.681C192.569 455.013 192.3 455.281 191.969 455.281C191.638 455.281 191.369 455.013 191.369 454.681C191.369 452.916 188.242 451.701 183.014 451.18C180.598 450.939 178.056 450.867 175.739 450.899L174.467 450.928C174.353 450.932 174.265 450.935 174.205 450.938C174.028 450.946 173.857 450.876 173.738 450.746L173.308 450.294L172.865 449.838C172.632 449.601 172.383 449.35 172.118 449.088C170.856 447.84 169.51 446.593 168.136 445.43C166.825 444.321 165.557 443.346 164.357 442.545C163.103 441.708 161.948 441.076 160.92 440.681C160.611 440.562 160.456 440.215 160.575 439.905Z" fill="#DD936F"/>
<path fill-rule="evenodd" clip-rule="evenodd" d="M234.442 821.762C227.777 822.059 222.064 816.986 221.5 810.27L209.422 666.608C208.552 656.258 216.374 647.263 226.642 646.805C236.911 646.347 245.503 654.611 245.557 664.998L246.309 809.164C246.344 815.905 241.105 821.466 234.442 821.762Z" fill="#FFC999"/>
<path fill-rule="evenodd" clip-rule="evenodd" d="M346.516 632.296C342.969 620.052 332.149 612.518 322.554 615.612L219.409 648.879C211.464 651.441 207.466 661.58 210.403 671.719C213.339 681.857 222.138 688.29 230.22 686.211L335.18 659.204C344.943 656.691 350.061 644.54 346.516 632.296Z" fill="#FFC999"/>
<path fill-rule="evenodd" clip-rule="evenodd" d="M222.045 823.151L246.475 822.824L247.336 784.165L219.289 784.539L222.045 823.151Z" fill="#597EF7"/>
<path d="M245.575 791.096C246.018 791.09 246.382 791.444 246.388 791.887C246.394 792.293 246.096 792.633 245.705 792.691L245.597 792.7L219.703 793.045C219.26 793.051 218.896 792.697 218.89 792.254C218.885 791.848 219.182 791.508 219.573 791.45L219.682 791.441L245.575 791.096Z" fill="#E4EBF7"/>
<path fill-rule="evenodd" clip-rule="evenodd" d="M219.809 813.862L246.667 813.504L248.681 862.686L188.161 863.492L187.913 855.941C187.832 853.164 189.75 850.729 192.468 850.159L208.472 845.222L216.662 840.412C219.131 838.963 220.6 836.284 220.486 833.425C220.241 827.278 219.841 816.856 219.809 813.862Z" fill="#4E5C93"/>
<path fill-rule="evenodd" clip-rule="evenodd" d="M248.119 864.297L187.782 865.101C187.211 865.109 186.741 864.651 186.735 864.079L186.643 857.312C186.636 856.74 187.093 856.27 187.665 856.263L248.002 855.458C248.574 855.452 249.042 855.908 249.05 856.48L249.141 863.247C249.149 863.819 248.691 864.289 248.119 864.297Z" fill="#E4EBF7"/>
<path fill-rule="evenodd" clip-rule="evenodd" d="M187.665 856.263C187.609 851.998 190.654 848.322 194.855 847.586L208.471 845.198L209.516 855.822L187.665 856.263Z" fill="#E4EBF7"/>
<path d="M247.996 855.048C248.223 855.045 248.409 855.226 248.412 855.453C248.415 855.652 248.276 855.819 248.09 855.86L248.007 855.869L187.671 856.674C187.444 856.677 187.257 856.496 187.254 856.269C187.252 856.07 187.39 855.903 187.577 855.862L187.66 855.853L247.996 855.048Z" fill="#A3B5D6"/>
<path d="M219.909 831.573C219.997 831.128 220.429 830.838 220.874 830.925L221.136 830.983C221.434 831.053 221.837 831.165 222.317 831.322C223.378 831.671 224.441 832.133 225.438 832.723C226.493 833.348 227.413 834.083 228.16 834.942C228.618 835.47 228.25 836.292 227.551 836.302C226.809 836.312 225.66 836.488 224.236 836.794C223.776 836.892 223.296 837.003 222.8 837.123L222.05 837.31L221.308 837.502L221.48 837.64C222.182 838.215 222.878 838.874 223.544 839.616L223.875 839.995C224.063 840.216 224.247 840.443 224.426 840.675C224.865 841.245 224.411 842.064 223.695 841.994C222.803 841.907 221.748 841.921 220.566 842.023C219.549 842.112 218.472 842.262 217.368 842.461L216.703 842.585L216.453 842.635C216.631 842.741 216.803 842.851 216.976 842.969L217.235 843.154C217.943 843.679 218.57 844.317 219.091 845.076C219.348 845.45 219.252 845.961 218.878 846.218C218.504 846.474 217.993 846.379 217.736 846.005C217.322 845.401 216.824 844.894 216.257 844.475C215.648 844.024 214.993 843.696 214.338 843.473L214.032 843.376C213.798 843.308 213.619 843.27 213.515 843.256C212.631 843.132 212.551 841.885 213.412 841.65L213.808 841.547C213.936 841.514 214.086 841.477 214.256 841.436C214.912 841.278 215.631 841.12 216.389 840.973C217.777 840.702 219.14 840.498 220.423 840.387C220.902 840.345 221.363 840.317 221.805 840.304L221.939 840.301L221.927 840.288C221.456 839.797 220.971 839.35 220.484 838.947L220.119 838.654C219.896 838.48 219.687 838.326 219.492 838.191L219.155 837.965C219.092 837.924 219.045 837.896 219.018 837.88C218.395 837.518 218.508 836.586 219.199 836.383L220.148 836.114C220.876 835.914 221.643 835.714 222.413 835.527C222.922 835.403 223.416 835.29 223.891 835.188C224.398 835.079 224.874 834.985 225.316 834.908L225.659 834.849L225.571 834.781C225.368 834.629 225.157 834.484 224.937 834.343L224.601 834.137C223.715 833.612 222.76 833.197 221.804 832.883C221.553 832.8 221.316 832.73 221.097 832.67L220.883 832.614C220.721 832.573 220.609 832.548 220.556 832.537C220.111 832.45 219.821 832.018 219.909 831.573Z" fill="#E4EBF7"/>
<path d="M220.595 823.685C220.503 823.687 220.412 823.705 220.327 823.738C219.301 824.126 218.73 824.77 218.763 825.608C218.787 826.228 219.129 826.766 219.66 827.28C219.948 827.558 220.23 827.771 220.433 827.902L220.508 827.97L220.853 828.253C221.251 828.575 221.701 828.934 222.196 829.32C223.608 830.423 225.089 831.527 226.57 832.558C227.448 833.169 228.301 833.737 229.122 834.254C231.902 836.004 234.172 837.088 235.836 837.326C238.23 837.669 239.449 836.219 238.939 833.387C238.162 829.083 234.762 826.354 229.678 824.877C227.824 824.339 225.85 824.001 223.858 823.821C222.696 823.717 221.696 823.679 220.933 823.681L220.595 823.685ZM221.733 825.337C222.348 825.356 223.012 825.394 223.711 825.457C225.604 825.628 227.478 825.949 229.22 826.455C233.768 827.776 236.678 830.111 237.322 833.679C237.643 835.46 237.294 835.876 236.069 835.7C234.701 835.504 232.592 834.497 229.997 832.864C229.199 832.361 228.367 831.807 227.509 831.21C226.055 830.198 224.597 829.112 223.207 828.026L222.128 827.17L221.405 826.582C221.205 826.445 221.001 826.292 220.802 826.099C220.548 825.854 220.408 825.633 220.407 825.535C220.419 825.511 220.481 825.455 220.691 825.362L220.779 825.325L221.061 825.324C221.256 825.325 221.481 825.329 221.733 825.337Z" fill="#E4EBF7"/>
<path fill-rule="evenodd" clip-rule="evenodd" d="M182.328 799.353C175.695 800.061 169.681 795.35 168.703 788.681L147.8 646.034C146.294 635.758 153.548 626.299 163.769 625.209C173.99 624.121 183.073 631.839 183.767 642.201L193.396 786.048C193.847 792.774 188.961 798.646 182.328 799.353Z" fill="#FFC999"/>
<path fill-rule="evenodd" clip-rule="evenodd" d="M289.238 632.285C287.683 619.634 278.197 610.476 268.233 612.006L161.112 628.458C152.861 629.725 147.303 639.101 148.59 649.578C149.88 660.054 157.542 667.804 165.855 667.035L273.771 657.05C283.809 656.121 290.794 644.937 289.238 632.285Z" fill="#FFC999"/>
<path fill-rule="evenodd" clip-rule="evenodd" d="M170.041 801.503L194.406 799.672L192.884 761.034L164.911 763.134L170.041 801.503Z" fill="#597EF7"/>
<path d="M191.553 768.06C191.994 768.027 192.38 768.358 192.413 768.8C192.443 769.205 192.167 769.562 191.781 769.645L191.673 769.66L165.849 771.599C165.407 771.632 165.022 771.301 164.989 770.859C164.959 770.454 165.235 770.097 165.621 770.015L165.729 769.999L191.553 768.06Z" fill="#E4EBF7"/>
<path fill-rule="evenodd" clip-rule="evenodd" d="M167.237 792.369L194.022 790.358L199.063 839.322L138.707 843.855L137.993 836.333C137.741 833.567 139.507 831.017 142.184 830.283L157.853 824.367L165.733 819.062C168.106 817.465 169.409 814.7 169.119 811.854C168.497 805.735 167.455 795.356 167.237 792.369Z" fill="#4E5C93"/>
<path fill-rule="evenodd" clip-rule="evenodd" d="M198.6 840.965L138.427 845.484C137.856 845.526 137.361 845.099 137.318 844.528L136.812 837.78C136.769 837.209 137.196 836.714 137.767 836.669L197.937 832.151C198.508 832.108 199.007 832.535 199.049 833.106L199.556 839.854C199.598 840.425 199.171 840.922 198.6 840.965Z" fill="#E4EBF7"/>
<path fill-rule="evenodd" clip-rule="evenodd" d="M137.766 836.67C137.447 832.417 140.261 828.56 144.407 827.567L157.851 824.344L159.549 834.884L137.766 836.67Z" fill="#E4EBF7"/>
<path d="M197.908 831.742C198.134 831.725 198.331 831.894 198.348 832.12C198.363 832.318 198.235 832.494 198.051 832.546L197.969 832.561L137.797 837.079C137.571 837.096 137.374 836.927 137.357 836.701C137.342 836.503 137.47 836.327 137.654 836.275L137.735 836.26L197.908 831.742Z" fill="#A3B5D6"/>
<path d="M169.349 809.336L169.592 809.374C169.911 809.428 170.351 809.52 170.879 809.66C172.006 809.96 173.134 810.379 174.193 810.941C175.213 811.481 176.116 812.128 176.87 812.895C177.36 813.393 177.043 814.237 176.346 814.29C175.669 814.341 174.66 814.552 173.418 814.889L173.102 814.975C172.701 815.088 172.283 815.21 171.852 815.342L171.074 815.585L170.19 815.873L170.483 816.081C171.264 816.655 172.039 817.318 172.78 818.074L173.148 818.46C173.266 818.588 173.382 818.717 173.497 818.848C173.971 819.39 173.568 820.235 172.849 820.21C171.985 820.179 170.973 820.251 169.848 820.414C168.732 820.575 167.539 820.82 166.314 821.126L165.661 821.293L165.893 821.417C166.067 821.513 166.242 821.617 166.417 821.73L166.681 821.906C167.338 822.361 167.931 822.913 168.443 823.568C168.722 823.925 168.659 824.442 168.301 824.721C167.944 825 167.428 824.937 167.148 824.579C166.741 824.058 166.27 823.619 165.745 823.256C165.085 822.798 164.374 822.481 163.663 822.279C163.363 822.194 163.116 822.143 162.94 822.116L162.766 822.095C161.876 822.026 161.72 820.787 162.564 820.499L162.823 820.414C163.027 820.347 163.262 820.274 163.522 820.195C164.265 819.969 165.072 819.743 165.916 819.532C167.191 819.214 168.437 818.958 169.613 818.788C169.917 818.744 170.214 818.706 170.504 818.675L170.99 818.627L170.921 818.562C170.458 818.139 169.986 817.754 169.511 817.406L169.155 817.151C168.907 816.979 168.673 816.827 168.457 816.694L168.247 816.568C168.088 816.475 167.979 816.416 167.927 816.39C167.283 816.067 167.338 815.13 168.016 814.884L169.014 814.535C169.777 814.275 170.575 814.014 171.372 813.771L172.24 813.513L172.66 813.393C173.155 813.255 173.619 813.134 174.05 813.031L174.371 812.956C174.166 812.82 173.961 812.692 173.748 812.571L173.423 812.392C172.484 811.894 171.471 811.517 170.457 811.248C170.191 811.177 169.939 811.118 169.706 811.069L169.299 810.991C169.223 810.978 169.166 810.969 169.132 810.965C168.682 810.905 168.366 810.491 168.426 810.042C168.482 809.627 168.838 809.326 169.246 809.329L169.349 809.336Z" fill="#E4EBF7"/>
<path d="M169.249 802.085L168.627 802.126C168.536 802.134 168.446 802.157 168.363 802.195C167.611 802.534 167.129 802.987 166.965 803.577C166.736 804.405 167.152 805.111 167.891 805.751C168.201 806.02 168.506 806.222 168.724 806.345L168.849 806.442L169.661 807.02C169.929 807.208 170.215 807.406 170.516 807.614C171.954 808.602 173.463 809.591 174.974 810.514C175.886 811.073 176.773 811.59 177.625 812.06C180.545 813.669 182.912 814.64 184.614 814.796C187.063 815.022 188.223 813.504 187.531 810.679C186.512 806.513 183.062 804.011 178.044 802.82C175.068 802.115 171.957 801.95 169.249 802.085ZM177.665 804.419C182.145 805.482 185.091 807.618 185.935 811.07C186.37 812.844 186.038 813.278 184.764 813.161C183.355 813.031 181.149 812.126 178.418 810.621C177.589 810.164 176.723 809.659 175.83 809.113C174.644 808.387 173.456 807.62 172.304 806.844L171.447 806.26C171.15 806.056 170.869 805.861 170.606 805.676L169.613 804.967C169.4 804.841 169.18 804.694 168.967 804.509C168.663 804.246 168.542 804.04 168.548 804.016L168.559 803.995C168.586 803.955 168.663 803.888 168.816 803.803L168.915 803.75L169.202 803.733L169.331 803.726C171.898 803.597 174.865 803.755 177.665 804.419Z" fill="#E4EBF7"/>
<path fill-rule="evenodd" clip-rule="evenodd" d="M269.827 483.918C267.07 491.082 261.908 503.44 261.67 511.404C261.285 524.316 270.246 533.342 270.246 533.342C270.246 533.342 270.092 529.56 273 562.767C311.706 567.07 335.665 558.389 335.665 558.389L334.363 549.621L339.265 528.389C339.265 528.389 342.554 520.39 349.223 502.587C353.861 490.211 352.544 475.313 351.31 467.381C350.784 463.983 348.219 461.259 344.857 460.538C333.107 458.02 328.731 458.194 328.731 458.194L327.161 450.647C326.894 449.354 325.715 448.456 324.398 448.539L296.256 450.314C295.047 450.39 294.045 451.275 293.816 452.464L292.262 459.117L275.061 459.067C272.361 459.774 270.442 462.165 270.332 464.955L269.827 483.918Z" fill="white"/>
<path d="M320.842 458.606C321.109 458.589 321.339 458.792 321.355 459.058C321.37 459.295 321.212 459.503 320.989 459.558L320.903 459.571L295.565 461.168C295.298 461.185 295.069 460.983 295.052 460.716C295.037 460.479 295.195 460.271 295.418 460.216L295.504 460.203L320.842 458.606Z" fill="#4E5C93"/>
<path d="M328.421 456.176C328.617 455.894 329.003 455.825 329.285 456.021C329.538 456.197 329.62 456.527 329.491 456.797L329.44 456.884L304.161 493.242C303.899 493.619 303.346 493.585 303.121 493.211L303.076 493.119L290.284 461.245C290.156 460.927 290.311 460.566 290.629 460.438C290.915 460.323 291.236 460.437 291.391 460.692L291.436 460.783L303.799 491.588L328.421 456.176Z" fill="#CCD7EE"/>
<path fill-rule="evenodd" clip-rule="evenodd" d="M296.151 495.991C293.639 500.907 295.281 506.771 299.815 509.087C304.352 511.404 310.062 509.297 312.574 504.381C315.085 499.464 313.444 493.6 308.91 491.284C304.373 488.967 298.66 491.075 296.151 495.991Z" fill="#CCD7EE"/>
<path fill-rule="evenodd" clip-rule="evenodd" d="M295.139 496.031C292.628 500.947 294.269 506.811 298.804 509.127C303.34 511.444 309.051 509.337 311.564 504.421C314.074 499.504 312.433 493.64 307.898 491.324C303.361 489.007 297.65 491.116 295.139 496.031Z" fill="#E4EBF7"/>
<path fill-rule="evenodd" clip-rule="evenodd" d="M296.975 496.744C295.026 500.562 296.299 505.114 299.821 506.914C303.343 508.712 307.778 507.075 309.728 503.259C311.677 499.441 310.404 494.889 306.883 493.091C303.36 491.292 298.925 492.928 296.975 496.744Z" fill="#FAAD14"/>
<path d="M351.266 466.899C351.532 466.875 351.768 467.071 351.792 467.337L351.951 469.2L352.069 470.699C352.148 471.724 352.225 472.797 352.299 473.901C352.442 476.03 352.56 478.114 352.647 480.101L352.688 481.086C352.864 485.615 352.853 489.25 352.604 491.679C352.338 494.272 350.939 498.494 348.682 503.926C348.229 505.013 347.748 506.138 347.24 507.292C346.298 509.432 345.303 511.597 344.297 513.715L343.542 515.293C343.174 516.055 342.828 516.763 342.51 517.406L341.885 518.66L334.414 549.833L335.915 562.975C335.941 563.207 335.798 563.42 335.584 563.49L335.5 563.509L334.392 563.647C334.089 563.683 333.758 563.72 333.399 563.76L332.342 563.872C330.889 564.021 329.263 564.169 327.475 564.309C311.145 565.585 292.393 565.5 272.851 563.134C272.619 563.106 272.441 562.917 272.426 562.685L272.301 561.187C272.188 559.928 272.004 557.989 271.76 555.475L270.658 544.268L269.689 534.56L269.385 534.067C269.095 533.591 268.773 533.046 268.425 532.441C267.434 530.711 266.443 528.839 265.518 526.893C264.268 524.265 263.237 521.706 262.5 519.291C261.828 517.089 261.416 515.057 261.3 513.226C261.007 508.585 261.38 504.925 262.484 501.161C263.071 499.159 263.864 497.104 265.031 494.493L265.5 493.462L269.424 485.157L269.228 477.345C269.222 477.107 269.388 476.905 269.613 476.859L269.7 476.849C269.937 476.843 270.139 477.009 270.185 477.234L270.195 477.32L270.395 485.249L270.349 485.467C270.358 485.447 266.927 492.649 266.151 494.363C264.869 497.191 264.023 499.348 263.412 501.433C262.341 505.086 261.979 508.634 262.266 513.166C262.376 514.913 262.773 516.874 263.425 519.008C264.147 521.374 265.161 523.89 266.392 526.478C267.306 528.4 268.285 530.25 269.265 531.96L269.664 532.648C269.857 532.977 270.04 533.283 270.211 533.564L270.567 534.138L270.64 534.35L272.644 554.561C272.9 557.196 273.097 559.265 273.226 560.671L273.361 562.22L274.324 562.335C292.856 564.482 310.64 564.582 326.261 563.431L327.4 563.344L328.704 563.238C329.977 563.131 331.158 563.021 332.242 562.91L333.641 562.76L334.899 562.61L333.443 549.858L333.453 549.691L340.958 518.379L340.997 518.273L341.456 517.355L342.242 515.757C342.381 515.471 342.524 515.176 342.67 514.873C343.926 512.27 345.182 509.566 346.354 506.902C346.86 505.754 347.339 504.636 347.788 503.554L348.195 502.566C350.178 497.695 351.404 493.894 351.641 491.58C351.884 489.209 351.896 485.61 351.721 481.123C351.646 479.179 351.537 477.128 351.403 475.023L351.334 473.966C351.26 472.865 351.183 471.795 351.105 470.773L350.829 467.425C350.804 467.159 351 466.923 351.266 466.899Z" fill="#4E5C93"/>
<path fill-rule="evenodd" clip-rule="evenodd" d="M268.912 564.202L268.074 556.419C268.074 556.419 301.623 556.714 331.223 556.292C333.407 559.53 333.882 565.725 333.882 565.725C331.471 563.595 301.711 569.853 268.912 564.202Z" fill="#4E5C93"/>
<path d="M273.225 563.637C273.35 563.599 273.478 563.604 273.593 563.644L273.66 563.673L273.926 563.709L274.337 563.752L275.474 563.851C275.831 563.879 276.227 563.908 276.66 563.939L278.271 564.046C280.844 564.208 284.048 564.373 287.623 564.523L288.981 564.578C301.113 565.06 314.992 565.283 329.336 565.126C329.664 565.123 329.933 565.385 329.936 565.713C329.94 566.04 329.677 566.309 329.349 566.313C315.497 566.464 302.079 566.262 290.243 565.815L286.906 565.68C283.148 565.519 279.829 565.341 277.257 565.169L275.377 565.033C275.016 565.004 274.696 564.977 274.42 564.952L273.857 564.895C273.75 564.883 273.656 564.872 273.576 564.861L273.468 564.845C273.362 564.828 273.287 564.813 273.219 564.79L273.173 564.783C273.118 564.767 273.071 564.714 272.838 564.445L272.923 564.057C273.017 563.65 273.052 563.648 273.225 563.637Z" fill="#253368"/>
<path fill-rule="evenodd" clip-rule="evenodd" d="M305.63 582.292L242.731 582.702C240.965 582.714 239.397 581.582 238.851 579.906L216.982 512.777C216.131 510.17 218.066 507.488 220.807 507.471L283.708 507.062C285.472 507.05 287.04 508.18 287.588 509.858L309.457 576.986C310.305 579.594 308.372 582.274 305.63 582.292Z" fill="#4E5C93"/>
<path fill-rule="evenodd" clip-rule="evenodd" d="M301.061 582.323L238.162 582.732C236.397 582.743 234.829 581.612 234.283 579.935L212.414 512.807C211.564 510.199 213.497 507.519 216.24 507.5L279.14 507.091C280.903 507.079 282.473 508.211 283.019 509.887L304.888 577.016C305.737 579.624 303.805 582.304 301.061 582.323Z" fill="#253368"/>
<path fill-rule="evenodd" clip-rule="evenodd" d="M273.889 569.575C273.062 564.695 275.859 560.088 280.24 559.118L364.784 540.379C372.613 538.94 380.213 544.843 381.681 553.505C383.164 562.243 377.83 570.37 369.878 571.493L282.952 577.389C278.618 577.685 274.69 574.296 273.889 569.575Z" fill="#FFC999"/>
<path fill-rule="evenodd" clip-rule="evenodd" d="M372.849 570.802L372.125 571.007C363.792 573.378 355.113 568.544 352.742 560.209L330.386 481.623C328.013 473.289 332.849 464.61 341.184 462.239L341.906 462.034C350.241 459.662 358.92 464.496 361.29 472.831L383.647 551.418C386.018 559.752 381.183 568.43 372.849 570.802Z" fill="#FFC999"/>
<path fill-rule="evenodd" clip-rule="evenodd" d="M370.196 504.136L360.324 469.432C357.943 461.066 349.044 456.199 340.545 458.617C332.045 461.034 327.038 469.858 329.419 478.223L339.197 512.598L370.196 504.136Z" fill="white"/>
<path d="M329.281 477.764C329.507 477.697 329.743 477.803 329.846 478.006L329.878 478.086L339.97 511.883L370.517 503.546C370.744 503.484 370.978 503.596 371.076 503.802L371.106 503.883C371.169 504.11 371.056 504.344 370.851 504.442L370.77 504.472L339.77 512.933C339.547 512.994 339.317 512.887 339.216 512.687L339.184 512.608L328.959 478.361C328.883 478.107 329.027 477.84 329.281 477.764Z" fill="#4E5C93"/>
<path fill-rule="evenodd" clip-rule="evenodd" d="M270.518 580.623C270.518 580.623 287.649 579.791 290.831 570.193C293.713 561.499 285.389 557.578 285.389 557.578C285.389 557.578 277.732 552.37 267.649 550.283C261.007 548.908 248.111 547.576 246.917 550.968C245.361 555.391 260.044 556.05 259.939 559.458C259.831 562.958 256.786 563.046 249.931 565.525C245.647 567.074 240.814 566.915 237.432 568.922C230.822 572.843 244.926 584.013 270.518 580.623Z" fill="#FFC999"/>
<path d="M258.009 568.216C258.282 568.029 258.656 568.098 258.843 568.372C259.031 568.645 258.961 569.018 258.688 569.206L258.496 569.331L258.399 569.39C258.172 569.53 257.903 569.684 257.594 569.85C256.717 570.32 255.69 570.789 254.519 571.226C250.062 572.888 244.843 573.642 238.983 572.982C238.654 572.945 238.417 572.648 238.454 572.319C238.491 571.989 238.788 571.752 239.117 571.79C244.781 572.427 249.812 571.701 254.1 570.101C255.218 569.684 256.197 569.238 257.027 568.792L257.365 568.606C257.673 568.433 257.889 568.299 258.009 568.216Z" fill="#DD936F"/>
<path d="M261.064 573.649C261.37 573.521 261.722 573.664 261.85 573.969C261.979 574.275 261.836 574.626 261.531 574.755L261.016 574.966C255.819 577.037 250.372 577.534 245.656 577.156L245.257 577.121L244.635 577.05C244.307 577.003 244.079 576.699 244.126 576.371C244.173 576.043 244.478 575.815 244.806 575.862L245.102 575.899C245.229 575.913 245.383 575.928 245.563 575.944L245.752 575.96C250.3 576.324 255.573 575.843 260.572 573.851C260.737 573.785 260.901 573.718 261.064 573.649Z" fill="#DD936F"/>
<path d="M266.325 577.067C266.616 576.907 266.981 577.013 267.14 577.303C267.3 577.594 267.194 577.959 266.904 578.118L266.747 578.2C266.562 578.292 266.289 578.415 265.929 578.56C265.141 578.878 264.191 579.194 263.073 579.488C260.132 580.263 256.572 580.751 252.371 580.816C252.039 580.821 251.767 580.557 251.761 580.226C251.756 579.894 252.021 579.622 252.352 579.616C256.456 579.552 259.921 579.078 262.768 578.328C263.836 578.047 264.739 577.746 265.48 577.447L265.778 577.324C266.047 577.208 266.229 577.12 266.325 577.067Z" fill="#DD936F"/>
<path fill-rule="evenodd" clip-rule="evenodd" d="M170.129 611.421L257.492 593.436L266.615 577.593L332.864 572.879C332.864 572.879 376.503 651.249 326.396 669.236C286.569 680.799 275.48 682.084 275.48 682.084L260.061 703.924L188.115 670.52L135.44 638.401L170.129 611.421Z" fill="#4E5C93"/>
<path d="M300.396 576.142C300.565 575.87 300.922 575.787 301.193 575.955C301.434 576.105 301.527 576.403 301.427 576.659L301.38 576.752L291.102 593.313C291.072 593.361 291.035 593.404 290.993 593.442L290.925 593.493L216.931 641.438L204.062 670.753C203.946 671.017 203.658 671.151 203.388 671.081L203.299 671.05C203.036 670.935 202.902 670.647 202.971 670.377L203.002 670.288L215.941 640.814C215.975 640.736 216.026 640.667 216.089 640.612L216.156 640.561L290.186 592.592L300.396 576.142Z" fill="#253368"/>
<path d="M314.053 578.725C314.34 578.741 314.567 578.964 314.596 579.241L314.599 579.335L313.313 602.46C313.31 602.521 313.297 602.581 313.275 602.638L313.235 602.72L286.281 648.923L260.585 704.168C260.45 704.458 260.106 704.584 259.816 704.449C259.555 704.328 259.428 704.037 259.503 703.768L259.536 703.68L285.256 648.387L312.165 602.257L313.443 579.271C313.459 578.984 313.682 578.757 313.959 578.727L314.053 578.725Z" fill="#253368"/>
<path d="M325.465 580.022C325.746 579.962 326.023 580.118 326.123 580.378L326.15 580.468L332.859 612.301C332.879 612.393 332.875 612.487 332.851 612.575L332.819 612.662L305.552 672.047C305.419 672.337 305.075 672.464 304.785 672.331C304.523 672.211 304.394 671.921 304.468 671.652L304.5 671.564L331.686 612.353L325.018 580.707C324.958 580.426 325.114 580.149 325.374 580.048L325.465 580.022Z" fill="#253368"/>
<path d="M276.639 582.787C276.922 582.639 277.272 582.749 277.419 583.032C277.553 583.287 277.477 583.596 277.254 583.763L277.174 583.813L257.759 593.949L257.608 594.003L170.379 611.961L136.457 638.343L188.417 670.026C188.659 670.174 188.754 670.472 188.656 670.728L188.609 670.821C188.461 671.064 188.164 671.159 187.908 671.06L187.814 671.014L135.139 638.895C134.822 638.702 134.772 638.273 135.012 638.011L135.085 637.944L169.774 610.965C169.821 610.929 169.873 610.9 169.928 610.879L170.013 610.855L257.295 592.885L276.639 582.787Z" fill="#253368"/>
<path d="M300.39 597.279C300.553 597.004 300.908 596.914 301.183 597.077C301.427 597.223 301.526 597.519 301.43 597.777L301.385 597.871L288.823 618.997L288.722 619.124L260.743 645.39C260.51 645.608 260.144 645.597 259.925 645.364C259.73 645.157 259.718 644.844 259.881 644.624L259.951 644.546L287.87 618.335L300.39 597.279Z" fill="#253368"/>
<path d="M253.871 606.167C254.172 606.059 254.504 606.215 254.612 606.516C254.709 606.786 254.592 607.082 254.348 607.217L254.262 607.256L209.811 623.203L173.268 643.759C172.989 643.916 172.636 643.817 172.48 643.538C172.34 643.291 172.403 642.984 172.614 642.809L172.7 642.75L209.332 622.154L253.871 606.167Z" fill="#253368"/>
</svg>
